HIERARCHY
ROOT hip
{
	OFFSET 0.000000 0.000000 0.000000 
	CHANNELS 6 Xposition Yposition Zposition Xrotation Zrotation Yrotation
	JOINT abdomen
	{
		OFFSET 0.000000 3.402643 0.000000 
		CHANNELS 3 Xrotation Zrotation Yrotation
		JOINT chest
		{
			OFFSET 0.000000 8.438565 -0.680529 
			CHANNELS 3 Xrotation Zrotation Yrotation
			JOINT neck
			{
				OFFSET 0.000000 10.207942 -0.272212 
				CHANNELS 3 Xrotation Zrotation Yrotation
				JOINT head
				{
					OFFSET 0.000000 3.130431 0.000000 
					CHANNELS 3 Xrotation Zrotation Yrotation
					End Site
					{
						OFFSET 0.000000 3.130435 0.000000 
					}
				}
			}
			JOINT lCollar
			{
				OFFSET 3.470700 6.669187 -0.816635 
				CHANNELS 3 Yrotation Zrotation Xrotation
				JOINT lShldr
				{
					OFFSET 3.198488 0.000000 0.000000 
					CHANNELS 3 Zrotation Yrotation Xrotation
					JOINT lForeArm
					{
						OFFSET 10.139888 0.000000 0.000000 
						CHANNELS 3 Yrotation Zrotation Xrotation
						JOINT lHand
						{
							OFFSET 8.370511 0.000000 0.000000 
							CHANNELS 3 Zrotation Yrotation Xrotation
							End Site
							{
								OFFSET 4.083176 0.000000 0.000000 
							}
						}
					}
				}
			}
			JOINT rCollar
			{
				OFFSET -3.470700 6.669187 -0.816635 
				CHANNELS 3 Yrotation Zrotation Xrotation
				JOINT rShldr
				{
					OFFSET -3.198488 0.000000 0.000000 
					CHANNELS 3 Zrotation Yrotation Xrotation
					JOINT rForeArm
					{
						OFFSET -10.139888 0.000000 0.000000 
						CHANNELS 3 Yrotation Zrotation Xrotation
						JOINT rHand
						{
							OFFSET -8.370511 0.000000 0.000000 
							CHANNELS 3 Zrotation Yrotation Xrotation
							End Site
							{
								OFFSET -4.083176 0.000000 0.000000 
							}
						}
					}
				}
			}
		}
	}
	JOINT lThigh
	{
		OFFSET 5.308129 -1.633274 1.361059 
		CHANNELS 3 Xrotation Zrotation Yrotation
		JOINT lShin
		{
			OFFSET -2.041588 -20.007561 0.000000 
			CHANNELS 3 Xrotation Zrotation Yrotation
			JOINT lFoot
			{
				OFFSET 0.000000 -19.190928 -1.224953 
				CHANNELS 3 Xrotation Yrotation Zrotation
				End Site
				{
					OFFSET 0.000000 -2.449906 4.627600 
				}
			}
		}
	}
	JOINT rThigh
	{
		OFFSET -5.308129 -1.633274 1.361059 
		CHANNELS 3 Xrotation Zrotation Yrotation
		JOINT rShin
		{
			OFFSET 2.041588 -20.007561 0.000000 
			CHANNELS 3 Xrotation Zrotation Yrotation
			JOINT rFoot
			{
				OFFSET 0.000000 -19.190928 -1.224953 
				CHANNELS 3 Xrotation Yrotation Zrotation
				End Site
				{
					OFFSET 0.000000 -2.449906 4.627600 
				}
			}
		}
	}
}
MOTION
Frames: 18
Frame Time: 0.033333
2.810326 53.050022 120.264709 -0.361328 1.386719 -0.722656 24.880152 -15.898778 -6.466197 -16.728516 9.160157 3.212891 51.063168 8.107644 2.471410 -17.246094 1.777344 -2.812500 2.000000 -2.000000 0.000000 -92.167969 -6.767579 -2.266776 -92.552177 0.159108 -2.861378 -50.138573 42.468456 -100.749908 -2.000000 2.000000 0.000000 95.078125 0.322266 -12.333929 95.496315 -0.694911 -3.068350 51.897781 -62.752602 -69.998848 -0.343378 10.969856 16.517178 10.332470 -5.192027 -1.070504 2.669152 4.109987 -7.479722 2.977361 1.444340 -14.269455 6.637542 5.383130 0.749555 -0.602919 -11.605085 -1.094119 
2.617969 53.026390 120.132767 -0.722656 1.386719 -1.611328 24.880152 -15.898778 -6.466197 -16.904297 9.169923 3.185150 51.063168 8.107644 2.471410 -16.855469 2.031250 -2.968750 2.000000 -2.000000 0.000000 -92.333984 -6.513672 -2.099609 -92.552177 0.159108 -2.861378 -49.969669 42.127689 -100.189117 -2.000000 2.000000 0.000000 95.078125 0.000000 -12.441407 95.672089 -0.704660 -3.068913 51.978870 -63.169430 -70.389656 -2.627212 11.859344 16.196085 14.762023 -5.046081 -1.659175 4.023675 4.037514 -8.644434 2.914588 1.569148 -13.564859 6.824836 5.383274 0.775069 -0.426264 -11.760897 -1.156989 
2.437855 53.010643 119.998550 -0.908203 1.386719 -2.490234 24.880152 -15.898778 -6.466197 -17.089844 9.003906 3.312075 51.063168 8.107644 2.471410 -16.484375 2.275390 -3.124612 2.000000 -2.000000 0.000000 -92.304688 -5.986328 -2.178751 -92.376122 0.159672 -2.851632 -48.632488 41.731937 -98.541283 -2.000000 2.000000 0.000000 95.087891 0.029297 -12.441401 95.847870 -0.714409 -3.069477 51.305241 -63.223736 -69.937828 -5.155367 12.699758 14.894342 18.968988 -5.019636 -1.811288 7.164663 4.494705 -10.047081 2.685246 1.620794 -12.507706 7.192876 5.373666 0.660041 -0.278289 -11.960287 -1.208024 
2.267275 53.002762 119.879356 -1.064453 1.386719 -3.378906 24.880152 -15.898778 -6.466197 -17.275391 9.013672 3.281250 51.063168 8.107644 2.471410 -16.269531 2.539063 -3.065974 2.000000 -2.000000 0.000000 -92.314453 -5.820313 -2.217787 -92.200615 0.149358 -2.860812 -48.126926 41.561642 -97.683670 -2.000000 2.000000 0.000000 95.957031 -0.283203 -12.568409 96.020111 -0.682745 -2.940531 51.516399 -63.185280 -69.895599 -7.575777 13.059443 13.078416 22.844593 -4.804902 -2.321128 10.106451 5.029587 -12.792653 2.581567 1.888839 -11.411158 7.544044 5.391131 0.661526 -0.455749 -12.089863 -0.952737 
2.111578 52.971241 119.780991 -1.240234 1.386719 -4.443123 25.064493 -15.888558 -6.493628 -17.460938 8.847656 3.203125 51.063168 8.107644 2.471410 -16.093752 2.529297 -3.066406 2.000000 -2.000000 0.000000 -92.509766 -5.849610 -2.247089 -92.200615 0.149358 -2.860812 -47.633293 41.705170 -97.824539 -2.000000 2.000000 0.000000 96.992188 -0.312500 -12.666067 96.186539 -0.857104 -2.970172 50.833721 -62.905251 -68.693626 -9.518305 12.552795 9.738954 25.119080 -4.707007 -2.334098 14.141428 8.584496 -13.682889 2.332582 1.941796 -10.209962 7.889880 5.367394 0.855064 -0.258789 -12.494223 -0.930850 
1.995398 52.955490 119.694206 -1.425781 1.386719 -5.488045 25.064493 -15.888558 -6.493628 -17.460938 8.847656 3.203125 51.063168 8.107644 2.471410 -16.269531 2.539063 -2.714411 2.000000 -2.000000 0.000000 -92.314453 -5.947266 -2.432651 -92.200615 0.149358 -2.860812 -47.887482 41.941933 -98.558792 -2.000000 2.000000 0.000000 97.539063 -0.166016 -13.105498 96.375198 -0.733908 -3.070605 50.613575 -62.599518 -68.034325 -11.421805 11.225945 4.943770 26.891399 -4.737153 -2.486545 17.848858 13.118995 -15.773475 2.224406 2.009182 -8.809752 8.238173 5.354046 0.913482 -0.425671 -12.443889 -0.710062 
1.916328 52.994884 119.636345 -1.611328 1.386719 -6.718513 25.064493 -15.888558 -6.493628 -17.460938 8.847656 3.378907 51.063168 8.107644 2.471410 -16.445314 2.568359 -2.382813 2.000000 -2.000000 0.000000 -92.128906 -6.015625 -2.764696 -92.046890 -0.392727 -3.269444 -47.553993 43.090931 -98.945503 -2.000000 2.000000 0.000000 97.714844 0.087891 -12.333971 96.370544 -0.733750 -2.904368 49.586437 -62.725315 -67.607040 -12.277339 9.408117 0.096614 27.940918 -4.677719 -2.580121 21.364130 16.936338 -19.542034 2.108996 2.079603 -7.381058 8.597314 5.374442 0.896613 -0.106933 -12.822211 -0.275455 
1.897593 53.144562 119.598167 -1.767578 1.386719 -7.968750 25.267725 -15.789748 -6.672687 -17.119143 8.662110 3.222656 51.063168 8.107644 2.471410 -16.933594 2.792969 -1.943359 2.000000 -2.000000 0.000000 -91.777344 -6.386719 -2.676866 -92.024841 0.139609 -2.860247 -47.777576 43.013180 -99.408104 -2.000000 2.000000 0.000000 97.187500 0.966797 -12.070313 96.199417 -0.733908 -3.070605 48.602234 -62.794914 -67.354347 -12.108565 8.632230 -4.022857 28.487530 -4.547145 -2.808626 22.364330 18.033155 -20.958984 1.990875 1.980804 -5.976924 9.127660 5.365203 0.970130 -0.302257 -12.637626 0.025130 
1.934368 53.215473 119.587746 -1.767578 1.386719 -9.375000 25.305185 -15.870525 -6.903953 -16.230469 8.613282 3.183594 51.063168 8.107644 2.471410 -17.626955 3.027344 -1.552734 2.000000 -2.000000 0.000000 -91.435547 -7.158204 -3.468014 -92.046890 -0.392727 -3.269444 -45.585003 43.539684 -98.132690 -2.000000 2.000000 0.000000 96.992188 1.953125 -11.444979 96.205498 -0.498073 -2.920070 48.786179 -63.059250 -68.003258 -11.265282 7.849501 -9.210838 27.813826 -4.755875 -2.762230 21.908789 16.083984 -19.471878 1.855077 2.050267 -4.609638 9.294784 5.337020 0.836334 -0.275063 -12.856659 0.077846 
2.110421 53.231224 119.644455 -1.943359 1.210938 -10.771278 25.296307 -15.621714 -6.979416 -15.693358 8.583984 3.263176 51.063168 8.107644 2.471410 -17.792971 3.046875 -1.376953 2.000000 -2.000000 0.000000 -91.621094 -7.666016 -3.917319 -91.849060 0.139609 -2.860247 -44.461647 43.255081 -96.963852 -2.000000 2.000000 0.000000 96.455078 2.246094 -10.654295 96.199417 -0.733908 -3.070605 48.766270 -62.989529 -68.265419 -10.366478 7.215042 -14.223336 27.273539 -4.776225 -2.769741 19.180073 13.554446 -15.693608 1.725556 1.754445 -3.055448 10.008493 5.330318 1.061972 -0.302574 -12.637973 0.412581 
2.372475 53.152447 119.771744 -2.119140 1.210938 -12.353308 25.113804 -15.388775 -7.040151 -15.517578 8.574219 3.115235 51.063168 8.107644 2.471410 -17.626955 3.027344 -1.376953 2.000000 -2.000000 0.000000 -91.455078 -7.812500 -4.228516 -91.849060 0.139609 -2.860247 -43.579830 43.236210 -96.246017 -2.000000 2.000000 0.000000 95.722656 1.943359 -10.234375 96.375191 -0.743657 -3.071169 49.068844 -62.906116 -68.407127 -9.259803 6.491833 -19.240864 26.554531 -4.805948 -2.707023 15.496687 9.477979 -9.301541 1.579202 1.462112 -1.462351 10.180870 5.348371 0.902848 -0.330342 -12.267400 0.814501 
2.642779 53.050022 119.925644 -2.314453 1.044922 -14.296696 24.930096 -15.141020 -7.085017 -15.166015 8.554688 3.165515 51.063168 8.107644 2.471410 -17.441408 2.998047 -1.347656 2.000000 -2.000000 0.000000 -90.917969 -7.900392 -4.669311 -91.673004 0.130424 -2.849936 -44.216782 43.146519 -96.750542 -2.000000 2.000000 0.000000 95.693359 1.748047 -9.364936 96.375191 -0.743657 -3.071169 49.193264 -63.187263 -68.256165 -7.849561 6.093137 -23.041086 26.220770 -4.737548 -3.179634 11.088435 4.822381 -1.195662 1.603638 1.030238 0.086136 10.707540 5.316784 1.120652 -0.302858 -11.799374 1.069939 
2.923717 53.002762 120.125824 -2.314453 1.044922 -16.230291 24.767284 -14.904622 -7.157671 -14.990235 8.535157 3.193359 51.063168 8.107644 2.471410 -17.275391 2.978516 -1.347656 2.000000 -2.000000 0.000000 -89.658203 -8.144533 -5.009766 -91.496948 0.121240 -2.839624 -45.663261 42.946358 -97.940765 -2.000000 2.000000 0.000000 96.376953 1.835938 -8.798514 96.537811 -0.877166 -2.961554 49.404079 -63.295891 -68.521133 -6.766947 5.612082 -27.047728 25.688879 -4.808399 -2.664202 8.397101 -0.308038 6.817920 1.494092 0.791086 1.236630 10.542950 5.249659 1.140579 -0.331679 -10.758318 1.030980 
3.223473 52.987003 120.339912 -2.470703 0.869147 -18.495819 24.391237 -14.678410 -7.200480 -14.628906 8.525391 3.067854 51.063168 8.107644 2.471410 -17.109375 2.949219 -1.347154 2.000000 -2.000000 0.000000 -88.750000 -7.998047 -5.234375 -91.496948 0.121240 -2.839624 -47.417515 42.703041 -99.172279 -2.000000 2.000000 0.000000 97.431641 1.953125 -8.281249 96.374908 -0.744221 -3.061424 48.887108 -63.132950 -67.778770 -5.825480 4.617866 -28.250942 25.334753 -4.850770 -2.604760 8.017001 1.908425 3.036598 1.478838 0.340808 2.968603 11.236973 5.248206 1.228061 -0.498872 -9.840164 1.128851 
3.534879 53.010643 120.581757 -2.646484 0.683594 -20.791016 24.228966 -14.439669 -7.251573 -14.453124 8.515625 3.097149 51.063168 8.107644 2.471410 -16.748047 2.900391 -1.503906 2.000000 -2.000000 0.000000 -88.427734 -8.320313 -5.606881 -91.339127 -0.227163 -3.112795 -48.111443 42.969936 -100.261269 -2.000000 2.000000 0.000000 97.773438 1.933594 -7.753574 96.199142 -0.734472 -3.060860 48.832397 -63.208851 -67.566643 -5.081662 4.226319 -27.553942 25.483349 -4.854157 -2.617686 7.027058 2.961043 1.348529 1.464885 -0.078012 4.900257 11.587683 5.210574 1.235088 -1.046483 -8.752580 1.027634 
3.848346 52.971241 120.805092 -2.646484 0.507813 -23.232304 24.056343 -14.194093 -7.318619 -14.277344 8.505859 3.126445 51.063168 8.107644 2.471410 -16.406252 2.851562 -1.484375 2.000000 -2.000000 0.000000 -88.779297 -8.017579 -5.429688 -91.321175 0.121240 -2.839624 -49.048096 43.581310 -101.921577 -2.000000 2.000000 0.000000 97.392578 1.796875 -8.095704 96.208740 -0.569297 -3.041528 48.630783 -63.326694 -67.288437 -3.686872 4.361748 -25.954126 24.619879 -4.893785 -2.563526 5.151429 3.659541 0.607431 1.295119 -0.545496 6.622174 11.953329 5.203732 1.285175 -1.239096 -8.108730 0.995039 
4.167714 52.963371 120.994888 -2.832031 0.341797 -25.683512 23.708519 -13.870180 -7.510330 -14.101563 8.486328 2.970191 51.063168 8.107644 2.471410 -16.054689 2.822265 -1.640625 2.000000 -2.000000 0.000000 -89.707031 -7.568360 -5.264958 -91.145393 0.111491 -2.839059 -48.949444 44.457451 -103.508377 -2.000000 2.000000 0.000000 96.689453 1.650391 -7.939171 96.023361 -0.734472 -3.060860 48.185123 -63.324638 -66.744934 -1.823418 4.886067 -23.669439 22.678938 -4.972032 -2.396044 2.485514 3.233245 -0.521085 1.105175 -0.835997 8.533360 12.450925 5.181842 1.324127 -1.567509 -6.899993 1.157356 
4.482733 52.947609 121.170761 -2.832031 0.166016 -28.310520 23.527584 -13.633667 -7.583435 -13.916016 8.476563 2.998047 51.063168 8.107644 2.471410 -15.703128 2.773438 -1.630859 2.000000 -2.000000 0.000000 -90.419922 -7.314454 -4.873047 -91.321175 0.121240 -2.839624 -48.665295 45.080257 -103.997612 -2.000000 2.000000 0.000000 95.830078 1.640625 -8.056359 95.847588 -0.724722 -3.060296 47.721035 -63.056648 -66.206367 0.312429 5.300453 -21.004936 20.067373 -5.071630 -2.183240 0.125126 3.075191 -1.510240 0.710732 -1.033161 10.624672 13.357874 5.152031 1.377889 -1.597592 -5.840991 1.155249 
